<mxfile host="app.diagrams.net" modified="2024-01-14T01:03:56.856Z" agent="Mozilla/5.0 (Windows NT 10.0; Win64; x64) AppleWebKit/537.36 (KHTML, like Gecko) Chrome/120.0.0.0 Safari/537.36" etag="YLmLPPVuAmabeqFsPvLM" version="22.1.18" type="device">
  <diagram name="PÃ¡gina-1" id="iBVTVro_h4-8pqpQSiBj">
    <mxGraphModel dx="880" dy="434" grid="1" gridSize="10" guides="1" tooltips="1" connect="1" arrows="1" fold="1" page="1" pageScale="1" pageWidth="827" pageHeight="1169" math="0" shadow="0">
      <root>
        <mxCell id="0" />
        <mxCell id="1" parent="0" />
        <mxCell id="N4Z7Us9XKesD3dfk5txk-1" value="&amp;lt;&amp;lt;Interface&amp;gt;&amp;gt;&lt;br&gt;Component" style="swimlane;fontStyle=1;align=center;verticalAlign=top;childLayout=stackLayout;horizontal=1;startSize=40;horizontalStack=0;resizeParent=1;resizeParentMax=0;resizeLast=0;collapsible=1;marginBottom=0;whiteSpace=wrap;html=1;" parent="1" vertex="1">
          <mxGeometry x="270" y="130" width="200" height="74" as="geometry" />
        </mxCell>
        <mxCell id="N4Z7Us9XKesD3dfk5txk-3" value="" style="line;strokeWidth=1;fillColor=none;align=left;verticalAlign=middle;spacingTop=-1;spacingLeft=3;spacingRight=3;rotatable=0;labelPosition=right;points=[];portConstraint=eastwest;strokeColor=inherit;" parent="N4Z7Us9XKesD3dfk5txk-1" vertex="1">
          <mxGeometry y="40" width="200" height="8" as="geometry" />
        </mxCell>
        <mxCell id="N4Z7Us9XKesD3dfk5txk-4" value="+ get(input): Element" style="text;strokeColor=none;fillColor=none;align=left;verticalAlign=top;spacingLeft=4;spacingRight=4;overflow=hidden;rotatable=0;points=[[0,0.5],[1,0.5]];portConstraint=eastwest;whiteSpace=wrap;html=1;" parent="N4Z7Us9XKesD3dfk5txk-1" vertex="1">
          <mxGeometry y="48" width="200" height="26" as="geometry" />
        </mxCell>
        <mxCell id="N4Z7Us9XKesD3dfk5txk-5" value="ParagraphComponent" style="swimlane;fontStyle=1;align=center;verticalAlign=top;childLayout=stackLayout;horizontal=1;startSize=26;horizontalStack=0;resizeParent=1;resizeParentMax=0;resizeLast=0;collapsible=1;marginBottom=0;whiteSpace=wrap;html=1;" parent="1" vertex="1">
          <mxGeometry x="170" y="290" width="180" height="60" as="geometry" />
        </mxCell>
        <mxCell id="N4Z7Us9XKesD3dfk5txk-7" value="" style="line;strokeWidth=1;fillColor=none;align=left;verticalAlign=middle;spacingTop=-1;spacingLeft=3;spacingRight=3;rotatable=0;labelPosition=right;points=[];portConstraint=eastwest;strokeColor=inherit;" parent="N4Z7Us9XKesD3dfk5txk-5" vertex="1">
          <mxGeometry y="26" width="180" height="8" as="geometry" />
        </mxCell>
        <mxCell id="N4Z7Us9XKesD3dfk5txk-8" value="+ get(input): Element" style="text;strokeColor=none;fillColor=none;align=left;verticalAlign=top;spacingLeft=4;spacingRight=4;overflow=hidden;rotatable=0;points=[[0,0.5],[1,0.5]];portConstraint=eastwest;whiteSpace=wrap;html=1;" parent="N4Z7Us9XKesD3dfk5txk-5" vertex="1">
          <mxGeometry y="34" width="180" height="26" as="geometry" />
        </mxCell>
        <mxCell id="N4Z7Us9XKesD3dfk5txk-9" value="TableComponent" style="swimlane;fontStyle=1;align=center;verticalAlign=top;childLayout=stackLayout;horizontal=1;startSize=26;horizontalStack=0;resizeParent=1;resizeParentMax=0;resizeLast=0;collapsible=1;marginBottom=0;whiteSpace=wrap;html=1;" parent="1" vertex="1">
          <mxGeometry x="380" y="290" width="180" height="60" as="geometry" />
        </mxCell>
        <mxCell id="N4Z7Us9XKesD3dfk5txk-11" value="" style="line;strokeWidth=1;fillColor=none;align=left;verticalAlign=middle;spacingTop=-1;spacingLeft=3;spacingRight=3;rotatable=0;labelPosition=right;points=[];portConstraint=eastwest;strokeColor=inherit;" parent="N4Z7Us9XKesD3dfk5txk-9" vertex="1">
          <mxGeometry y="26" width="180" height="8" as="geometry" />
        </mxCell>
        <mxCell id="N4Z7Us9XKesD3dfk5txk-12" value="+ get(input): Element" style="text;strokeColor=none;fillColor=none;align=left;verticalAlign=top;spacingLeft=4;spacingRight=4;overflow=hidden;rotatable=0;points=[[0,0.5],[1,0.5]];portConstraint=eastwest;whiteSpace=wrap;html=1;" parent="N4Z7Us9XKesD3dfk5txk-9" vertex="1">
          <mxGeometry y="34" width="180" height="26" as="geometry" />
        </mxCell>
        <mxCell id="N4Z7Us9XKesD3dfk5txk-13" value="" style="endArrow=block;dashed=1;endFill=0;endSize=12;html=1;rounded=0;exitX=0.5;exitY=0;exitDx=0;exitDy=0;entryX=0.155;entryY=1.192;entryDx=0;entryDy=0;entryPerimeter=0;" parent="1" source="N4Z7Us9XKesD3dfk5txk-5" target="N4Z7Us9XKesD3dfk5txk-4" edge="1">
          <mxGeometry width="160" relative="1" as="geometry">
            <mxPoint x="180" y="100" as="sourcePoint" />
            <mxPoint x="340" y="100" as="targetPoint" />
          </mxGeometry>
        </mxCell>
        <mxCell id="N4Z7Us9XKesD3dfk5txk-14" value="" style="endArrow=block;dashed=1;endFill=0;endSize=12;html=1;rounded=0;exitX=0.5;exitY=0;exitDx=0;exitDy=0;entryX=0.77;entryY=0.962;entryDx=0;entryDy=0;entryPerimeter=0;" parent="1" source="N4Z7Us9XKesD3dfk5txk-9" target="N4Z7Us9XKesD3dfk5txk-4" edge="1">
          <mxGeometry width="160" relative="1" as="geometry">
            <mxPoint x="700" y="227.5" as="sourcePoint" />
            <mxPoint x="821" y="166.5" as="targetPoint" />
          </mxGeometry>
        </mxCell>
        <mxCell id="N4Z7Us9XKesD3dfk5txk-15" value="&amp;lt;&amp;lt;Interface&amp;gt;&amp;gt;&lt;br&gt;Style" style="swimlane;fontStyle=1;align=center;verticalAlign=top;childLayout=stackLayout;horizontal=1;startSize=40;horizontalStack=0;resizeParent=1;resizeParentMax=0;resizeLast=0;collapsible=1;marginBottom=0;whiteSpace=wrap;html=1;" parent="1" vertex="1">
          <mxGeometry x="270" y="430" width="200" height="74" as="geometry" />
        </mxCell>
        <mxCell id="N4Z7Us9XKesD3dfk5txk-16" value="" style="line;strokeWidth=1;fillColor=none;align=left;verticalAlign=middle;spacingTop=-1;spacingLeft=3;spacingRight=3;rotatable=0;labelPosition=right;points=[];portConstraint=eastwest;strokeColor=inherit;" parent="N4Z7Us9XKesD3dfk5txk-15" vertex="1">
          <mxGeometry y="40" width="200" height="8" as="geometry" />
        </mxCell>
        <mxCell id="N4Z7Us9XKesD3dfk5txk-17" value="+ get(input): Style" style="text;strokeColor=none;fillColor=none;align=left;verticalAlign=top;spacingLeft=4;spacingRight=4;overflow=hidden;rotatable=0;points=[[0,0.5],[1,0.5]];portConstraint=eastwest;whiteSpace=wrap;html=1;" parent="N4Z7Us9XKesD3dfk5txk-15" vertex="1">
          <mxGeometry y="48" width="200" height="26" as="geometry" />
        </mxCell>
        <mxCell id="N4Z7Us9XKesD3dfk5txk-18" value="Font" style="swimlane;fontStyle=1;align=center;verticalAlign=top;childLayout=stackLayout;horizontal=1;startSize=26;horizontalStack=0;resizeParent=1;resizeParentMax=0;resizeLast=0;collapsible=1;marginBottom=0;whiteSpace=wrap;html=1;" parent="1" vertex="1">
          <mxGeometry x="170" y="570" width="180" height="60" as="geometry" />
        </mxCell>
        <mxCell id="N4Z7Us9XKesD3dfk5txk-20" value="" style="line;strokeWidth=1;fillColor=none;align=left;verticalAlign=middle;spacingTop=-1;spacingLeft=3;spacingRight=3;rotatable=0;labelPosition=right;points=[];portConstraint=eastwest;strokeColor=inherit;" parent="N4Z7Us9XKesD3dfk5txk-18" vertex="1">
          <mxGeometry y="26" width="180" height="8" as="geometry" />
        </mxCell>
        <mxCell id="N4Z7Us9XKesD3dfk5txk-21" value="+ get(input): Style" style="text;strokeColor=none;fillColor=none;align=left;verticalAlign=top;spacingLeft=4;spacingRight=4;overflow=hidden;rotatable=0;points=[[0,0.5],[1,0.5]];portConstraint=eastwest;whiteSpace=wrap;html=1;" parent="N4Z7Us9XKesD3dfk5txk-18" vertex="1">
          <mxGeometry y="34" width="180" height="26" as="geometry" />
        </mxCell>
        <mxCell id="N4Z7Us9XKesD3dfk5txk-22" value="FontLetter" style="swimlane;fontStyle=1;align=center;verticalAlign=top;childLayout=stackLayout;horizontal=1;startSize=26;horizontalStack=0;resizeParent=1;resizeParentMax=0;resizeLast=0;collapsible=1;marginBottom=0;whiteSpace=wrap;html=1;" parent="1" vertex="1">
          <mxGeometry x="370" y="570" width="180" height="60" as="geometry" />
        </mxCell>
        <mxCell id="N4Z7Us9XKesD3dfk5txk-24" value="" style="line;strokeWidth=1;fillColor=none;align=left;verticalAlign=middle;spacingTop=-1;spacingLeft=3;spacingRight=3;rotatable=0;labelPosition=right;points=[];portConstraint=eastwest;strokeColor=inherit;" parent="N4Z7Us9XKesD3dfk5txk-22" vertex="1">
          <mxGeometry y="26" width="180" height="8" as="geometry" />
        </mxCell>
        <mxCell id="N4Z7Us9XKesD3dfk5txk-25" value="+ get(input): Style" style="text;strokeColor=none;fillColor=none;align=left;verticalAlign=top;spacingLeft=4;spacingRight=4;overflow=hidden;rotatable=0;points=[[0,0.5],[1,0.5]];portConstraint=eastwest;whiteSpace=wrap;html=1;" parent="N4Z7Us9XKesD3dfk5txk-22" vertex="1">
          <mxGeometry y="34" width="180" height="26" as="geometry" />
        </mxCell>
        <mxCell id="N4Z7Us9XKesD3dfk5txk-26" value="" style="endArrow=block;dashed=1;endFill=0;endSize=12;html=1;rounded=0;exitX=0.5;exitY=0;exitDx=0;exitDy=0;entryX=0.11;entryY=1.038;entryDx=0;entryDy=0;entryPerimeter=0;" parent="1" source="N4Z7Us9XKesD3dfk5txk-18" target="N4Z7Us9XKesD3dfk5txk-17" edge="1">
          <mxGeometry width="160" relative="1" as="geometry">
            <mxPoint x="229" y="501" as="sourcePoint" />
            <mxPoint x="310" y="410" as="targetPoint" />
          </mxGeometry>
        </mxCell>
        <mxCell id="N4Z7Us9XKesD3dfk5txk-27" value="" style="endArrow=block;dashed=1;endFill=0;endSize=12;html=1;rounded=0;exitX=0.5;exitY=0;exitDx=0;exitDy=0;entryX=0.82;entryY=0.962;entryDx=0;entryDy=0;entryPerimeter=0;" parent="1" source="N4Z7Us9XKesD3dfk5txk-22" target="N4Z7Us9XKesD3dfk5txk-17" edge="1">
          <mxGeometry width="160" relative="1" as="geometry">
            <mxPoint x="720" y="621" as="sourcePoint" />
            <mxPoint x="801" y="530" as="targetPoint" />
          </mxGeometry>
        </mxCell>
        <mxCell id="N4Z7Us9XKesD3dfk5txk-28" value="ComponentFactory" style="swimlane;fontStyle=1;align=center;verticalAlign=top;childLayout=stackLayout;horizontal=1;startSize=26;horizontalStack=0;resizeParent=1;resizeParentMax=0;resizeLast=0;collapsible=1;marginBottom=0;whiteSpace=wrap;html=1;" parent="1" vertex="1">
          <mxGeometry x="680" y="120" width="240" height="86" as="geometry" />
        </mxCell>
        <mxCell id="N4Z7Us9XKesD3dfk5txk-29" value="+ component: String" style="text;strokeColor=none;fillColor=none;align=left;verticalAlign=top;spacingLeft=4;spacingRight=4;overflow=hidden;rotatable=0;points=[[0,0.5],[1,0.5]];portConstraint=eastwest;whiteSpace=wrap;html=1;" parent="N4Z7Us9XKesD3dfk5txk-28" vertex="1">
          <mxGeometry y="26" width="240" height="26" as="geometry" />
        </mxCell>
        <mxCell id="N4Z7Us9XKesD3dfk5txk-30" value="" style="line;strokeWidth=1;fillColor=none;align=left;verticalAlign=middle;spacingTop=-1;spacingLeft=3;spacingRight=3;rotatable=0;labelPosition=right;points=[];portConstraint=eastwest;strokeColor=inherit;" parent="N4Z7Us9XKesD3dfk5txk-28" vertex="1">
          <mxGeometry y="52" width="240" height="8" as="geometry" />
        </mxCell>
        <mxCell id="N4Z7Us9XKesD3dfk5txk-31" value="+ getComponent(component): Component" style="text;strokeColor=none;fillColor=none;align=left;verticalAlign=top;spacingLeft=4;spacingRight=4;overflow=hidden;rotatable=0;points=[[0,0.5],[1,0.5]];portConstraint=eastwest;whiteSpace=wrap;html=1;" parent="N4Z7Us9XKesD3dfk5txk-28" vertex="1">
          <mxGeometry y="60" width="240" height="26" as="geometry" />
        </mxCell>
        <mxCell id="N4Z7Us9XKesD3dfk5txk-32" value="StyleFactory" style="swimlane;fontStyle=1;align=center;verticalAlign=top;childLayout=stackLayout;horizontal=1;startSize=26;horizontalStack=0;resizeParent=1;resizeParentMax=0;resizeLast=0;collapsible=1;marginBottom=0;whiteSpace=wrap;html=1;" parent="1" vertex="1">
          <mxGeometry x="730" y="418" width="140" height="86" as="geometry" />
        </mxCell>
        <mxCell id="N4Z7Us9XKesD3dfk5txk-33" value="+ style: String" style="text;strokeColor=none;fillColor=none;align=left;verticalAlign=top;spacingLeft=4;spacingRight=4;overflow=hidden;rotatable=0;points=[[0,0.5],[1,0.5]];portConstraint=eastwest;whiteSpace=wrap;html=1;" parent="N4Z7Us9XKesD3dfk5txk-32" vertex="1">
          <mxGeometry y="26" width="140" height="26" as="geometry" />
        </mxCell>
        <mxCell id="N4Z7Us9XKesD3dfk5txk-34" value="" style="line;strokeWidth=1;fillColor=none;align=left;verticalAlign=middle;spacingTop=-1;spacingLeft=3;spacingRight=3;rotatable=0;labelPosition=right;points=[];portConstraint=eastwest;strokeColor=inherit;" parent="N4Z7Us9XKesD3dfk5txk-32" vertex="1">
          <mxGeometry y="52" width="140" height="8" as="geometry" />
        </mxCell>
        <mxCell id="N4Z7Us9XKesD3dfk5txk-35" value="+ getStyle(style): Style" style="text;strokeColor=none;fillColor=none;align=left;verticalAlign=top;spacingLeft=4;spacingRight=4;overflow=hidden;rotatable=0;points=[[0,0.5],[1,0.5]];portConstraint=eastwest;whiteSpace=wrap;html=1;" parent="N4Z7Us9XKesD3dfk5txk-32" vertex="1">
          <mxGeometry y="60" width="140" height="26" as="geometry" />
        </mxCell>
        <mxCell id="N4Z7Us9XKesD3dfk5txk-36" value="Use" style="endArrow=open;endSize=12;dashed=1;html=1;rounded=0;exitX=0;exitY=0.5;exitDx=0;exitDy=0;entryX=1;entryY=0.392;entryDx=0;entryDy=0;entryPerimeter=0;" parent="1" source="N4Z7Us9XKesD3dfk5txk-29" target="N4Z7Us9XKesD3dfk5txk-1" edge="1">
          <mxGeometry width="160" relative="1" as="geometry">
            <mxPoint x="500" y="230" as="sourcePoint" />
            <mxPoint x="660" y="230" as="targetPoint" />
          </mxGeometry>
        </mxCell>
        <mxCell id="N4Z7Us9XKesD3dfk5txk-37" value="Use" style="endArrow=open;endSize=12;dashed=1;html=1;rounded=0;entryX=1;entryY=0.5;entryDx=0;entryDy=0;exitX=0.006;exitY=0.885;exitDx=0;exitDy=0;exitPerimeter=0;" parent="1" source="N4Z7Us9XKesD3dfk5txk-33" target="N4Z7Us9XKesD3dfk5txk-15" edge="1">
          <mxGeometry width="160" relative="1" as="geometry">
            <mxPoint x="682" y="467" as="sourcePoint" />
            <mxPoint x="414" y="402" as="targetPoint" />
          </mxGeometry>
        </mxCell>
        <mxCell id="N4Z7Us9XKesD3dfk5txk-42" value="TitleBuilder" style="swimlane;fontStyle=1;align=center;verticalAlign=top;childLayout=stackLayout;horizontal=1;startSize=26;horizontalStack=0;resizeParent=1;resizeParentMax=0;resizeLast=0;collapsible=1;marginBottom=0;whiteSpace=wrap;html=1;" parent="1" vertex="1">
          <mxGeometry x="1060" y="111" width="230" height="112" as="geometry" />
        </mxCell>
        <mxCell id="N4Z7Us9XKesD3dfk5txk-43" value="+ componentFactory: ComponentFactory" style="text;strokeColor=none;fillColor=none;align=left;verticalAlign=top;spacingLeft=4;spacingRight=4;overflow=hidden;rotatable=0;points=[[0,0.5],[1,0.5]];portConstraint=eastwest;whiteSpace=wrap;html=1;" parent="N4Z7Us9XKesD3dfk5txk-42" vertex="1">
          <mxGeometry y="26" width="230" height="26" as="geometry" />
        </mxCell>
        <mxCell id="N4Z7Us9XKesD3dfk5txk-54" value="+ styleFactory: StyleFactory" style="text;strokeColor=none;fillColor=none;align=left;verticalAlign=top;spacingLeft=4;spacingRight=4;overflow=hidden;rotatable=0;points=[[0,0.5],[1,0.5]];portConstraint=eastwest;whiteSpace=wrap;html=1;" parent="N4Z7Us9XKesD3dfk5txk-42" vertex="1">
          <mxGeometry y="52" width="230" height="26" as="geometry" />
        </mxCell>
        <mxCell id="N4Z7Us9XKesD3dfk5txk-44" value="" style="line;strokeWidth=1;fillColor=none;align=left;verticalAlign=middle;spacingTop=-1;spacingLeft=3;spacingRight=3;rotatable=0;labelPosition=right;points=[];portConstraint=eastwest;strokeColor=inherit;" parent="N4Z7Us9XKesD3dfk5txk-42" vertex="1">
          <mxGeometry y="78" width="230" height="8" as="geometry" />
        </mxCell>
        <mxCell id="N4Z7Us9XKesD3dfk5txk-45" value="+ createTitle(type): Paragraph" style="text;strokeColor=none;fillColor=none;align=left;verticalAlign=top;spacingLeft=4;spacingRight=4;overflow=hidden;rotatable=0;points=[[0,0.5],[1,0.5]];portConstraint=eastwest;whiteSpace=wrap;html=1;" parent="N4Z7Us9XKesD3dfk5txk-42" vertex="1">
          <mxGeometry y="86" width="230" height="26" as="geometry" />
        </mxCell>
        <mxCell id="N4Z7Us9XKesD3dfk5txk-46" value="TextBuilder" style="swimlane;fontStyle=1;align=center;verticalAlign=top;childLayout=stackLayout;horizontal=1;startSize=26;horizontalStack=0;resizeParent=1;resizeParentMax=0;resizeLast=0;collapsible=1;marginBottom=0;whiteSpace=wrap;html=1;" parent="1" vertex="1">
          <mxGeometry x="1050" y="264" width="240" height="112" as="geometry" />
        </mxCell>
        <mxCell id="N4Z7Us9XKesD3dfk5txk-56" value="+ styleFactory: StyleFactory" style="text;strokeColor=none;fillColor=none;align=left;verticalAlign=top;spacingLeft=4;spacingRight=4;overflow=hidden;rotatable=0;points=[[0,0.5],[1,0.5]];portConstraint=eastwest;whiteSpace=wrap;html=1;" parent="N4Z7Us9XKesD3dfk5txk-46" vertex="1">
          <mxGeometry y="26" width="240" height="26" as="geometry" />
        </mxCell>
        <mxCell id="N4Z7Us9XKesD3dfk5txk-55" value="+ componentFactory: ComponentFactory" style="text;strokeColor=none;fillColor=none;align=left;verticalAlign=top;spacingLeft=4;spacingRight=4;overflow=hidden;rotatable=0;points=[[0,0.5],[1,0.5]];portConstraint=eastwest;whiteSpace=wrap;html=1;" parent="N4Z7Us9XKesD3dfk5txk-46" vertex="1">
          <mxGeometry y="52" width="240" height="26" as="geometry" />
        </mxCell>
        <mxCell id="N4Z7Us9XKesD3dfk5txk-48" value="" style="line;strokeWidth=1;fillColor=none;align=left;verticalAlign=middle;spacingTop=-1;spacingLeft=3;spacingRight=3;rotatable=0;labelPosition=right;points=[];portConstraint=eastwest;strokeColor=inherit;" parent="N4Z7Us9XKesD3dfk5txk-46" vertex="1">
          <mxGeometry y="78" width="240" height="8" as="geometry" />
        </mxCell>
        <mxCell id="N4Z7Us9XKesD3dfk5txk-49" value="+ createText(type): Paragraph" style="text;strokeColor=none;fillColor=none;align=left;verticalAlign=top;spacingLeft=4;spacingRight=4;overflow=hidden;rotatable=0;points=[[0,0.5],[1,0.5]];portConstraint=eastwest;whiteSpace=wrap;html=1;" parent="N4Z7Us9XKesD3dfk5txk-46" vertex="1">
          <mxGeometry y="86" width="240" height="26" as="geometry" />
        </mxCell>
        <mxCell id="N4Z7Us9XKesD3dfk5txk-50" value="TableBuilder" style="swimlane;fontStyle=1;align=center;verticalAlign=top;childLayout=stackLayout;horizontal=1;startSize=26;horizontalStack=0;resizeParent=1;resizeParentMax=0;resizeLast=0;collapsible=1;marginBottom=0;whiteSpace=wrap;html=1;" parent="1" vertex="1">
          <mxGeometry x="1050" y="418" width="240" height="112" as="geometry" />
        </mxCell>
        <mxCell id="N4Z7Us9XKesD3dfk5txk-57" value="+ styleFactory: StyleFactory" style="text;strokeColor=none;fillColor=none;align=left;verticalAlign=top;spacingLeft=4;spacingRight=4;overflow=hidden;rotatable=0;points=[[0,0.5],[1,0.5]];portConstraint=eastwest;whiteSpace=wrap;html=1;" parent="N4Z7Us9XKesD3dfk5txk-50" vertex="1">
          <mxGeometry y="26" width="240" height="26" as="geometry" />
        </mxCell>
        <mxCell id="N4Z7Us9XKesD3dfk5txk-58" value="+ componentFactory: ComponentFactory" style="text;strokeColor=none;fillColor=none;align=left;verticalAlign=top;spacingLeft=4;spacingRight=4;overflow=hidden;rotatable=0;points=[[0,0.5],[1,0.5]];portConstraint=eastwest;whiteSpace=wrap;html=1;" parent="N4Z7Us9XKesD3dfk5txk-50" vertex="1">
          <mxGeometry y="52" width="240" height="26" as="geometry" />
        </mxCell>
        <mxCell id="N4Z7Us9XKesD3dfk5txk-52" value="" style="line;strokeWidth=1;fillColor=none;align=left;verticalAlign=middle;spacingTop=-1;spacingLeft=3;spacingRight=3;rotatable=0;labelPosition=right;points=[];portConstraint=eastwest;strokeColor=inherit;" parent="N4Z7Us9XKesD3dfk5txk-50" vertex="1">
          <mxGeometry y="78" width="240" height="8" as="geometry" />
        </mxCell>
        <mxCell id="N4Z7Us9XKesD3dfk5txk-53" value="+ createTable(type): Table" style="text;strokeColor=none;fillColor=none;align=left;verticalAlign=top;spacingLeft=4;spacingRight=4;overflow=hidden;rotatable=0;points=[[0,0.5],[1,0.5]];portConstraint=eastwest;whiteSpace=wrap;html=1;" parent="N4Z7Us9XKesD3dfk5txk-50" vertex="1">
          <mxGeometry y="86" width="240" height="26" as="geometry" />
        </mxCell>
        <mxCell id="N4Z7Us9XKesD3dfk5txk-59" value="PdfBuilder" style="swimlane;fontStyle=1;align=center;verticalAlign=top;childLayout=stackLayout;horizontal=1;startSize=26;horizontalStack=0;resizeParent=1;resizeParentMax=0;resizeLast=0;collapsible=1;marginBottom=0;whiteSpace=wrap;html=1;" parent="1" vertex="1">
          <mxGeometry x="1520" y="240" width="280" height="190" as="geometry" />
        </mxCell>
        <mxCell id="N4Z7Us9XKesD3dfk5txk-60" value="+titleBuilder:&amp;nbsp;TitleBuilder" style="text;strokeColor=none;fillColor=none;align=left;verticalAlign=top;spacingLeft=4;spacingRight=4;overflow=hidden;rotatable=0;points=[[0,0.5],[1,0.5]];portConstraint=eastwest;whiteSpace=wrap;html=1;" parent="N4Z7Us9XKesD3dfk5txk-59" vertex="1">
          <mxGeometry y="26" width="280" height="26" as="geometry" />
        </mxCell>
        <mxCell id="N4Z7Us9XKesD3dfk5txk-61" value="+textBuilder:&amp;nbsp;TextBuilder" style="text;strokeColor=none;fillColor=none;align=left;verticalAlign=top;spacingLeft=4;spacingRight=4;overflow=hidden;rotatable=0;points=[[0,0.5],[1,0.5]];portConstraint=eastwest;whiteSpace=wrap;html=1;" parent="N4Z7Us9XKesD3dfk5txk-59" vertex="1">
          <mxGeometry y="52" width="280" height="26" as="geometry" />
        </mxCell>
        <mxCell id="7O5Ys0rTdAiItxU9F8vc-9" value="+tableBuilder:&amp;nbsp;TableBuilder" style="text;strokeColor=none;fillColor=none;align=left;verticalAlign=top;spacingLeft=4;spacingRight=4;overflow=hidden;rotatable=0;points=[[0,0.5],[1,0.5]];portConstraint=eastwest;whiteSpace=wrap;html=1;" vertex="1" parent="N4Z7Us9XKesD3dfk5txk-59">
          <mxGeometry y="78" width="280" height="26" as="geometry" />
        </mxCell>
        <mxCell id="N4Z7Us9XKesD3dfk5txk-62" value="" style="line;strokeWidth=1;fillColor=none;align=left;verticalAlign=middle;spacingTop=-1;spacingLeft=3;spacingRight=3;rotatable=0;labelPosition=right;points=[];portConstraint=eastwest;strokeColor=inherit;" parent="N4Z7Us9XKesD3dfk5txk-59" vertex="1">
          <mxGeometry y="104" width="280" height="8" as="geometry" />
        </mxCell>
        <mxCell id="N4Z7Us9XKesD3dfk5txk-63" value="+ title(title)" style="text;strokeColor=none;fillColor=none;align=left;verticalAlign=top;spacingLeft=4;spacingRight=4;overflow=hidden;rotatable=0;points=[[0,0.5],[1,0.5]];portConstraint=eastwest;whiteSpace=wrap;html=1;" parent="N4Z7Us9XKesD3dfk5txk-59" vertex="1">
          <mxGeometry y="112" width="280" height="26" as="geometry" />
        </mxCell>
        <mxCell id="7O5Ys0rTdAiItxU9F8vc-10" value="+ text(text)" style="text;strokeColor=none;fillColor=none;align=left;verticalAlign=top;spacingLeft=4;spacingRight=4;overflow=hidden;rotatable=0;points=[[0,0.5],[1,0.5]];portConstraint=eastwest;whiteSpace=wrap;html=1;" vertex="1" parent="N4Z7Us9XKesD3dfk5txk-59">
          <mxGeometry y="138" width="280" height="26" as="geometry" />
        </mxCell>
        <mxCell id="7O5Ys0rTdAiItxU9F8vc-11" value="+ table(header, rows)" style="text;strokeColor=none;fillColor=none;align=left;verticalAlign=top;spacingLeft=4;spacingRight=4;overflow=hidden;rotatable=0;points=[[0,0.5],[1,0.5]];portConstraint=eastwest;whiteSpace=wrap;html=1;" vertex="1" parent="N4Z7Us9XKesD3dfk5txk-59">
          <mxGeometry y="164" width="280" height="26" as="geometry" />
        </mxCell>
        <mxCell id="7O5Ys0rTdAiItxU9F8vc-1" value="" style="endArrow=none;html=1;rounded=0;" edge="1" parent="1">
          <mxGeometry width="50" height="50" relative="1" as="geometry">
            <mxPoint x="980" y="458" as="sourcePoint" />
            <mxPoint x="980" y="160" as="targetPoint" />
          </mxGeometry>
        </mxCell>
        <mxCell id="7O5Ys0rTdAiItxU9F8vc-2" value="" style="endArrow=none;html=1;rounded=0;entryX=0;entryY=0.5;entryDx=0;entryDy=0;" edge="1" parent="1" target="N4Z7Us9XKesD3dfk5txk-57">
          <mxGeometry width="50" height="50" relative="1" as="geometry">
            <mxPoint x="980" y="457" as="sourcePoint" />
            <mxPoint x="980" y="457" as="targetPoint" />
          </mxGeometry>
        </mxCell>
        <mxCell id="7O5Ys0rTdAiItxU9F8vc-4" value="" style="endArrow=none;html=1;rounded=0;entryX=0;entryY=-0.077;entryDx=0;entryDy=0;entryPerimeter=0;" edge="1" parent="1" target="N4Z7Us9XKesD3dfk5txk-54">
          <mxGeometry width="50" height="50" relative="1" as="geometry">
            <mxPoint x="980" y="160" as="sourcePoint" />
            <mxPoint x="1440" y="160" as="targetPoint" />
          </mxGeometry>
        </mxCell>
        <mxCell id="7O5Ys0rTdAiItxU9F8vc-5" value="" style="endArrow=none;html=1;rounded=0;" edge="1" parent="1">
          <mxGeometry width="50" height="50" relative="1" as="geometry">
            <mxPoint x="980" y="310" as="sourcePoint" />
            <mxPoint x="1050" y="310" as="targetPoint" />
          </mxGeometry>
        </mxCell>
        <mxCell id="7O5Ys0rTdAiItxU9F8vc-7" value="Use" style="endArrow=open;endSize=12;dashed=1;html=1;rounded=0;entryX=1;entryY=0.5;entryDx=0;entryDy=0;" edge="1" parent="1" target="N4Z7Us9XKesD3dfk5txk-29">
          <mxGeometry width="160" relative="1" as="geometry">
            <mxPoint x="980" y="260" as="sourcePoint" />
            <mxPoint x="860" y="315.5" as="targetPoint" />
          </mxGeometry>
        </mxCell>
        <mxCell id="7O5Ys0rTdAiItxU9F8vc-8" value="Use" style="endArrow=open;endSize=12;dashed=1;html=1;rounded=0;entryX=1;entryY=0.5;entryDx=0;entryDy=0;" edge="1" parent="1" target="N4Z7Us9XKesD3dfk5txk-33">
          <mxGeometry width="160" relative="1" as="geometry">
            <mxPoint x="980" y="380" as="sourcePoint" />
            <mxPoint x="820" y="549.5" as="targetPoint" />
          </mxGeometry>
        </mxCell>
        <mxCell id="7O5Ys0rTdAiItxU9F8vc-12" value="" style="endArrow=diamondThin;endFill=1;endSize=24;html=1;rounded=0;entryX=0;entryY=0.5;entryDx=0;entryDy=0;exitX=1;exitY=0.5;exitDx=0;exitDy=0;" edge="1" parent="1" source="N4Z7Us9XKesD3dfk5txk-43" target="N4Z7Us9XKesD3dfk5txk-61">
          <mxGeometry width="160" relative="1" as="geometry">
            <mxPoint x="1240" y="380" as="sourcePoint" />
            <mxPoint x="1400" y="380" as="targetPoint" />
          </mxGeometry>
        </mxCell>
        <mxCell id="7O5Ys0rTdAiItxU9F8vc-13" value="" style="endArrow=diamondThin;endFill=1;endSize=24;html=1;rounded=0;entryX=0;entryY=0.5;entryDx=0;entryDy=0;exitX=1;exitY=0.5;exitDx=0;exitDy=0;" edge="1" parent="1" source="N4Z7Us9XKesD3dfk5txk-55" target="7O5Ys0rTdAiItxU9F8vc-9">
          <mxGeometry width="160" relative="1" as="geometry">
            <mxPoint x="1260" y="450" as="sourcePoint" />
            <mxPoint x="1490" y="605" as="targetPoint" />
          </mxGeometry>
        </mxCell>
        <mxCell id="7O5Ys0rTdAiItxU9F8vc-14" value="" style="endArrow=diamondThin;endFill=1;endSize=24;html=1;rounded=0;entryX=0;entryY=0.5;entryDx=0;entryDy=0;exitX=1;exitY=0.5;exitDx=0;exitDy=0;" edge="1" parent="1" source="N4Z7Us9XKesD3dfk5txk-58" target="N4Z7Us9XKesD3dfk5txk-63">
          <mxGeometry width="160" relative="1" as="geometry">
            <mxPoint x="1230" y="600" as="sourcePoint" />
            <mxPoint x="1460" y="755" as="targetPoint" />
          </mxGeometry>
        </mxCell>
      </root>
    </mxGraphModel>
  </diagram>
</mxfile>
